<svg width="34" height="34" viewBox="0 0 34 34" fill="none" xmlns="http://www.w3.org/2000/svg">
<path d="M11.3333 26.815C13.0561 27.8097 15.0105 28.3334 16.9999 28.3334C18.9893 28.3334 20.9437 27.8097 22.6666 26.815C24.3895 25.8203 25.8202 24.3896 26.8149 22.6667C27.8096 20.9439 28.3333 18.9895 28.3333 17.0001C28.3333 15.0107 27.8096 13.0563 26.8149 11.3334C25.8202 9.61053 24.3895 8.17984 22.6666 7.18513C20.9437 6.19042 18.9893 5.66675 16.9999 5.66675C15.0105 5.66675 13.0561 6.19042 11.3333 7.18513" stroke="#006BA6"/>
<path d="M2.83325 17.0001L2.44282 16.6877L2.19294 17.0001L2.44282 17.3124L2.83325 17.0001ZM15.5833 17.5001C15.8594 17.5001 16.0833 17.2762 16.0833 17.0001C16.0833 16.7239 15.8594 16.5001 15.5833 16.5001V17.5001ZM8.10948 9.6044L2.44282 16.6877L3.22369 17.3124L8.89035 10.2291L8.10948 9.6044ZM2.44282 17.3124L8.10948 24.3958L8.89035 23.7711L3.22369 16.6877L2.44282 17.3124ZM2.83325 17.5001H15.5833V16.5001H2.83325V17.5001Z" fill="#006BA6"/>
</svg>
